<svg width="155" height="60" viewBox="0 0 155 60" fill="none" xmlns="http://www.w3.org/2000/svg">
<g clip-path="url(#clip0_2245_240)">
<path d="M154.999 25.1521C154.999 28.1648 154.504 30.815 153.513 33.0987C152.522 35.3642 151.054 37.1304 149.111 38.3971C147.188 39.6436 144.796 40.2679 141.939 40.2679C139.083 40.2679 136.654 39.6336 134.711 38.3669C132.786 37.08 131.339 35.3058 130.366 33.0403C129.396 30.7747 128.908 28.1447 128.908 25.1521C128.908 22.1596 129.396 19.5275 130.366 17.2619C131.357 14.9964 132.815 13.2303 134.738 11.9636C136.683 10.6969 139.083 10.0625 141.939 10.0625C144.796 10.0625 147.216 10.7049 149.141 11.9917C151.084 13.2584 152.542 15.0246 153.513 17.2901C154.504 19.5355 154.999 22.1555 154.999 25.1501V25.1521ZM136.75 25.1521C136.75 26.8417 136.887 28.4065 137.16 29.8443C137.431 31.2641 137.945 32.416 138.706 33.3001C139.464 34.164 140.543 34.595 141.941 34.595C143.34 34.595 144.468 34.164 145.208 33.3001C145.966 32.418 146.48 31.2661 146.753 29.8443C147.027 28.4044 147.161 26.8397 147.161 25.1521C147.161 23.4645 147.027 21.928 146.753 20.4881C146.48 19.0482 145.966 17.8963 145.208 17.0324C144.47 16.1503 143.381 15.7073 141.941 15.7073C140.502 15.7073 139.464 16.1483 138.706 17.0324C137.947 17.8963 137.431 19.0482 137.16 20.4881C136.887 21.928 136.75 23.4827 136.75 25.1521Z" fill="#212429"/>
<path fill-rule="evenodd" clip-rule="evenodd" d="M26.3419 0.5679L26.7762 10.3209L20.6653 0C18.8792 0.0805531 17.1399 0.382627 15.4944 0.869974L20.49 9.32403L9.92392 3.43156C8.45584 4.38209 7.11419 5.49574 5.92749 6.76042L14.5647 11.5735L2.42451 11.7467C1.64969 13.2772 1.06042 14.9003 0.68525 16.6181L10.6049 16.4792L0.228516 22.6495C0.346777 24.4116 0.687289 26.1053 1.20315 27.7183L9.66496 22.6858L3.88239 33.1476C4.86926 34.5734 6.02129 35.8844 7.32624 37.0323L12.0384 28.5078L12.3789 40.3712C13.9428 41.1143 15.5984 41.6701 17.3377 42.0185L17.0563 32.3461L23.3914 42.3891C25.1776 42.2501 26.8944 41.9017 28.5277 41.356L23.3568 33.1678L33.9453 38.6776C35.3909 37.6908 36.7061 36.5329 37.8581 35.2339L29.2209 30.735L41.1837 30.2255C41.9238 28.683 42.4764 27.0356 42.8169 25.3078L33.0501 25.7246L43.1452 19.3468C42.9923 17.5847 42.6171 15.8911 42.0523 14.278L33.8025 19.508L39.4913 9.15084C38.4698 7.73511 37.2811 6.44828 35.9537 5.32456L31.6759 12.9449L31.2416 2.39041C29.7021 1.60099 28.0567 0.974693 26.3296 0.569913H26.3419V0.5679ZM21.7113 11.8876C26.9413 11.8876 31.1722 16.0623 31.1722 21.2237C31.1722 26.3852 26.9413 30.5598 21.7113 30.5598C16.4813 30.5598 12.2504 26.3852 12.2504 21.2237C12.2504 16.0623 16.4813 11.8876 21.7113 11.8876Z" fill="#EF4849"/>
<path d="M56.6981 6.75497C56.6981 5.08551 56.9999 3.89534 57.6014 3.18446C58.2029 2.47357 59.2734 2.11914 60.8087 2.11914H63.7245L64.1323 2.52191V31.3136C64.1323 32.1191 64.3178 32.7535 64.6869 33.2147C65.0763 33.6758 65.7268 33.9054 66.6402 33.9054H70.2554C70.6632 35.0754 70.8671 36.2958 70.8671 37.5625C70.8671 37.8304 70.8569 38.1183 70.8385 38.4264C70.8181 38.7144 70.7712 38.9823 70.6917 39.232C69.662 39.3669 68.5141 39.4817 67.2519 39.5784C66.0081 39.675 64.8031 39.7234 63.6368 39.7234C61.3246 39.7234 59.5853 39.1575 58.419 38.0237C57.2731 36.8718 56.6981 35.1056 56.6981 32.7253V6.75497ZM71.1872 10.8149C71.4196 11.6969 71.5379 12.591 71.5379 13.4932C71.5379 14.4921 71.4217 15.4124 71.1872 16.2582L60.9555 16.085L52.2388 16.2582C52.0451 15.3762 51.9473 14.4538 51.9473 13.4932C51.9473 12.6293 52.0451 11.7372 52.2388 10.8149L61.1309 10.9598L71.1892 10.8149H71.1872Z" fill="#212429"/>
<path d="M79.2584 27.5707V22.3025H91.7655V21.5836C91.7655 20.49 91.6004 19.4811 91.2701 18.5608C90.9581 17.6385 90.4545 16.8994 89.7551 16.3436C89.0741 15.7878 88.1524 15.5078 86.9861 15.5078C85.2958 15.5078 84.0622 16.2086 83.2833 17.6103C82.5248 18.9918 82.1456 20.9975 82.1456 23.6276V25.9012C82.1456 27.4559 82.2903 28.8756 82.5819 30.1625C82.8939 31.4493 83.475 32.4763 84.3314 33.2436C85.2061 33.9928 86.4682 34.3673 88.1219 34.3673C89.5206 34.3673 90.8725 34.1841 92.1733 33.8196C93.4946 33.4349 94.7588 32.9657 95.9638 32.4079C96.547 32.9838 97.022 33.7028 97.3931 34.5667C97.7826 35.4306 98.0354 36.2462 98.1516 37.0135C96.7142 38.0305 94.9933 38.828 92.991 39.4039C91.0091 39.9799 88.9884 40.2679 86.927 40.2679C84.4782 40.2679 82.4473 39.855 80.8345 39.0293C79.2217 38.2037 77.9391 37.09 76.9869 35.6904C76.0551 34.2707 75.3924 32.6677 75.005 30.8814C74.6156 29.077 74.4219 27.2142 74.4219 25.295C74.4219 22.4153 74.8684 19.8235 75.7635 17.5217C76.6566 15.2178 78.037 13.4034 79.9027 12.0803C81.7684 10.7371 84.1499 10.0645 87.0453 10.0645C89.592 10.0645 91.739 10.6122 93.4885 11.7057C95.2563 12.7811 96.5979 14.2391 97.5114 16.0818C98.4432 17.9244 98.9102 19.9967 98.9102 22.3005C98.9102 23.4141 98.8612 24.3546 98.7633 25.1218C98.6655 25.871 98.5105 26.6866 98.2964 27.5686H79.2604L79.2584 27.5707Z" fill="#212429"/>
<path d="M112.293 21.9007C112.992 20.9985 113.769 20.0581 114.623 19.0793C115.498 18.0805 116.285 17.1884 116.985 16.4009L116.809 16.1412C116.167 16.2177 115.4 16.2862 114.505 16.3425C113.63 16.4009 112.737 16.4473 111.824 16.4875C110.91 16.5258 110.074 16.5459 109.316 16.5459H104.039C103.943 16.1613 103.874 15.7585 103.835 15.3376C103.796 14.9147 103.778 14.5402 103.778 14.2139C103.778 13.6762 103.817 13.1204 103.894 12.5445C103.972 11.9685 104.07 11.4127 104.186 10.875H124.125C124.476 11.8356 124.739 12.6512 124.912 13.3218C125.088 13.9944 125.175 14.5885 125.175 15.1061C125.175 15.4706 125.106 15.8633 124.971 16.2862C124.855 16.7091 124.651 17.1018 124.358 17.4663L116.079 28.3792C115.419 29.2431 114.691 30.1634 113.893 31.1442C113.115 32.1048 112.366 32.9768 111.649 33.7642L111.824 34.024C112.699 33.9273 113.563 33.8608 114.417 33.8226C115.292 33.7642 116.079 33.736 116.779 33.736H119.168C120.276 33.736 121.336 33.6776 122.345 33.5628C123.356 33.4279 124.25 33.1882 125.028 32.8439C125.302 33.4782 125.495 34.0441 125.612 34.5435C125.728 35.0228 125.787 35.5222 125.787 36.0398C125.787 37.0769 125.467 37.9106 124.824 38.545C124.203 39.1592 123.075 39.4673 121.444 39.4673H103.951C103.621 38.5067 103.378 37.7495 103.223 37.1937C103.087 36.6178 103.02 36.1002 103.02 35.639C103.02 35.2161 103.095 34.765 103.252 34.2858C103.427 33.8065 103.719 33.297 104.127 32.7593L112.291 21.9047L112.293 21.9007Z" fill="#212429"/>
<path d="M0.228516 58.2233V51.2695H4.83256V52.2764H1.50696V54.2399H4.62254V55.2468H1.50696V58.2253H0.228516V58.2233Z" fill="#212429"/>
<path d="M7.76925 58.3232C7.26358 58.3232 6.82316 58.2205 6.45002 58.0171C6.07689 57.8137 5.78735 57.5237 5.58141 57.1491C5.37547 56.7685 5.27148 56.3215 5.27148 55.8079C5.27148 55.2944 5.37547 54.8514 5.58141 54.4768C5.78735 54.1022 6.07689 53.8122 6.45002 53.6088C6.82316 53.4054 7.26154 53.3027 7.76925 53.3027C8.27696 53.3027 8.71534 53.4054 9.08847 53.6088C9.46161 53.8122 9.75115 54.1022 9.95709 54.4768C10.163 54.8514 10.267 55.2964 10.267 55.8079C10.267 56.3194 10.163 56.7685 9.95709 57.1491C9.75115 57.5237 9.46161 57.8137 9.08847 58.0171C8.71534 58.2205 8.27696 58.3232 7.76925 58.3232ZM7.76925 57.3868C8.14238 57.3868 8.44211 57.2559 8.66844 56.9921C8.89477 56.7222 9.00895 56.3275 9.00895 55.8079C9.00895 55.2884 8.89681 54.8896 8.66844 54.6339C8.44211 54.3701 8.14238 54.2392 7.76925 54.2392C7.39611 54.2392 7.09638 54.3701 6.87005 54.6339C6.64372 54.8896 6.52954 55.2823 6.52954 55.8079C6.52954 56.3335 6.64372 56.7222 6.87005 56.9921C7.09638 57.2559 7.39611 57.3868 7.76925 57.3868Z" fill="#212429"/>
<path d="M11.2969 58.2235V53.4004H12.5162V54.2482C12.7568 53.6763 13.2686 53.3601 14.0536 53.3017L14.4328 53.2715L14.5124 54.3167L13.7926 54.3851C12.9729 54.4637 12.5651 54.8785 12.5651 55.6277V58.2215H11.2969V58.2235Z" fill="#212429"/>
<path d="M15.2266 58.2246V53.4015H16.4459V54.1405C16.5927 53.8767 16.7945 53.6733 17.0555 53.5283C17.3145 53.3773 17.6142 53.3008 17.9547 53.3008C18.6867 53.3008 19.1659 53.6169 19.3922 54.2473C19.5451 53.9512 19.7654 53.7217 20.0508 53.5565C20.3363 53.3854 20.6625 53.3008 21.0295 53.3008C22.1285 53.3008 22.677 53.9613 22.677 55.2844V58.2246H21.4292V55.3347C21.4292 54.9662 21.366 54.6964 21.2395 54.5252C21.1192 54.354 20.9133 54.2694 20.6197 54.2694C20.2935 54.2694 20.0365 54.3842 19.851 54.6138C19.6654 54.8373 19.5717 55.1495 19.5717 55.5502V58.2226H18.3238V55.3327C18.3238 54.9642 18.2606 54.6943 18.1342 54.5232C18.0139 54.352 17.812 54.2674 17.5245 54.2674C17.1983 54.2674 16.9414 54.3822 16.7558 54.6118C16.5703 54.8353 16.4765 55.1475 16.4765 55.5482V58.2206H15.2286L15.2266 58.2246Z" fill="#212429"/>
<path d="M26.3725 58.3232C25.8199 58.3232 25.3428 58.2205 24.9452 58.0171C24.5456 57.8137 24.2356 57.5237 24.0154 57.1491C23.8034 56.7746 23.6953 56.3295 23.6953 55.818C23.6953 55.3065 23.7993 54.8816 24.0052 54.507C24.2173 54.1324 24.5089 53.8404 24.8738 53.629C25.247 53.4115 25.6691 53.3027 26.1421 53.3027C26.8354 53.3027 27.3798 53.5202 27.7794 53.9532C28.1852 54.3882 28.3891 54.9782 28.3891 55.7294V56.0939H24.8942C24.988 56.9558 25.4876 57.3868 26.3929 57.3868C26.6661 57.3868 26.9393 57.3465 27.2126 57.268C27.4858 57.1834 27.7346 57.0505 27.9609 56.8733L28.3095 57.7009C28.0771 57.8922 27.7835 58.0433 27.4307 58.154C27.078 58.2668 26.7253 58.3212 26.3725 58.3212V58.3232ZM26.1931 54.1405C25.8261 54.1405 25.5304 54.2533 25.3041 54.4768C25.0777 54.7003 24.9411 55.0024 24.8942 55.385H27.3512C27.3247 54.9843 27.2105 54.6782 27.0107 54.4667C26.817 54.2492 26.5438 54.1405 26.191 54.1405H26.1931Z" fill="#212429"/>
<path d="M29.3789 58.2235V53.4004H30.5982V54.2482C30.8388 53.6763 31.3506 53.3601 32.1356 53.3017L32.5149 53.2715L32.5944 54.3167L31.8746 54.3851C31.055 54.4637 30.6472 54.8785 30.6472 55.6277V58.2215H29.3789V58.2235Z" fill="#212429"/>
<path d="M34.9895 58.322C34.4104 58.322 33.9802 58.1669 33.7009 57.8588C33.4276 57.5426 33.291 57.0835 33.291 56.4773V51.2695H34.5389V56.4189C34.5389 57.011 34.7917 57.307 35.2974 57.307C35.3708 57.307 35.4442 57.303 35.5176 57.2969C35.591 57.2909 35.6603 57.2768 35.7276 57.2566L35.7072 58.2334C35.4666 58.2918 35.2281 58.322 34.9875 58.322H34.9895Z" fill="#212429"/>
<path d="M36.7916 59.9997L37.6908 58.0262L35.6641 53.4004H36.9914L38.3596 56.7736L39.7584 53.4004H41.0164L38.0803 59.9997H36.7916Z" fill="#212429"/>
<path d="M109.462 56.8947C109.547 56.8464 109.592 56.7578 109.592 56.6309V54.4177C109.592 54.3311 109.543 54.2586 109.437 54.2002C109.333 54.1418 109.168 54.1136 108.95 54.1136H104.564L104.595 56.6329C104.595 56.7356 104.64 56.8142 104.733 56.8746C104.823 56.933 104.982 56.9632 105.202 56.9632H108.976C109.217 56.9632 109.376 56.941 109.464 56.8947H109.462ZM90.3646 58.2359V52.7925H93.7391L97.7172 56.8464L97.7518 56.9169V52.7925H99.6991V58.2359H96.3531L92.3363 54.1539L92.3118 54.1056V58.2359H90.3646ZM148.896 58.2581V54.0572H145.988V52.7925H153.779V53.3423C153.806 53.7713 153.53 54.029 152.878 54.0552H150.965V57.2048C150.937 57.8352 150.637 58.2722 149.687 58.2561H148.896V58.2581ZM135.773 57.4143V52.7905H141.274C141.743 52.7905 142.13 52.8187 142.44 52.8711C142.748 52.9275 143.001 53.0201 143.197 53.147C143.395 53.2759 143.539 53.447 143.629 53.6645C143.723 53.882 143.77 54.1579 143.77 54.4942C143.77 54.8305 143.735 55.1064 143.658 55.336C143.588 55.5615 143.47 55.7448 143.317 55.8858C143.158 56.0227 142.948 56.1274 142.689 56.1919C142.424 56.2563 142.098 56.2885 141.708 56.2885V56.3147L144.412 58.2581H142.893C142.234 58.2218 141.602 58.1392 141.119 57.7627L138.128 55.2816H141.101C141.303 55.2816 141.488 55.2333 141.647 55.1366C141.802 55.038 141.882 54.897 141.882 54.7117C141.882 54.5486 141.806 54.4157 141.651 54.311C141.502 54.2062 141.323 54.1559 141.123 54.1559H137.842V58.2601H137.047C136.297 58.2238 135.828 57.9761 135.773 57.4163V57.4143ZM125.523 57.0639V52.7905H132.792V54.0552H127.588V54.9735H132.751V56.0791H127.588V56.4799C127.588 56.8605 127.778 56.9833 128.172 56.9833H132.792V58.2561H127.032C126.126 58.2681 125.588 57.9016 125.523 57.0639ZM68.7696 57.8734C68.4169 57.6197 68.2415 57.2431 68.2415 56.7457V54.3069C68.2415 53.8055 68.4169 53.4269 68.7696 53.1711C69.1183 52.9174 69.6606 52.7905 70.3926 52.7905H76.0916V54.1337H70.621C70.4212 54.1337 70.2764 54.1579 70.1785 54.2163C70.0848 54.2707 70.0379 54.3392 70.0379 54.4237L70.0134 54.8748V56.1697L70.0379 56.5987C70.0379 56.7014 70.0827 56.7819 70.1785 56.8423C70.2683 56.9028 70.4171 56.933 70.621 56.933H76.0916V58.2561H70.3926C69.6606 58.2561 69.1183 58.1292 68.7696 57.8734ZM58.1505 57.0639V52.7905H65.4175V54.0552H60.216V54.9735H65.3828V56.0791H60.216V56.4799C60.216 56.8605 60.4097 56.9833 60.7972 56.9833H65.4155V58.2561H59.6574C58.75 58.2681 58.2178 57.9016 58.1485 57.0639H58.1505ZM51.0161 57.2048V54.0552H49.1035C48.447 54.027 48.1778 53.7692 48.1962 53.3423V52.7925H55.9872V54.0572H53.0796V58.2581H52.2925C51.3362 58.2742 51.0385 57.8352 51.0141 57.2068L51.0161 57.2048ZM78.9095 58.2561V52.7905H80.9791V55.6924C81.2136 55.3501 81.7009 54.758 82.7122 54.758H85.3955V52.7905H87.461V58.2561H85.3955V56.2181H80.9811V58.2561H78.9115H78.9095ZM117.014 58.2943L113.36 52.7905H114.865C115.407 52.7905 115.752 52.9355 115.94 53.2255L118.307 56.8846L120.621 53.304C120.856 52.8912 121.349 52.7885 121.789 52.7885H123.249L119.665 58.2923H117.016L117.014 58.2943ZM105.316 58.2943C104.939 58.2863 104.609 58.2701 104.336 58.242C104.062 58.2138 103.838 58.1674 103.655 58.103C103.475 58.0386 103.316 57.9459 103.167 57.8251C102.998 57.7023 102.884 57.5633 102.825 57.4203C102.766 57.2733 102.729 57.09 102.729 56.8665V52.7664C103.123 52.7563 106.303 52.7422 107.066 52.7422C107.829 52.7422 108.404 52.7462 108.803 52.7543C109.203 52.7643 109.541 52.7845 109.808 52.8147C110.082 52.8449 110.31 52.8912 110.496 52.9536C110.673 53.0161 110.84 53.1047 110.987 53.2215C111.152 53.3463 111.27 53.4853 111.332 53.6363C111.395 53.7914 111.425 53.9787 111.425 54.2022V56.8645C111.425 57.086 111.397 57.2713 111.332 57.4183C111.272 57.5633 111.154 57.7002 110.987 57.8231C110.838 57.9439 110.679 58.0365 110.5 58.101C110.326 58.1654 110.102 58.2138 109.833 58.2399C109.57 58.2681 109.246 58.2842 108.862 58.2923C108.479 58.3004 107.888 58.3024 107.09 58.3024C106.293 58.3024 105.7 58.3024 105.319 58.2923L105.316 58.2943Z" fill="#212429"/>
<path d="M153.868 47.1992H0V47.5738H153.868V47.1992Z" fill="#212429"/>
</g>
<defs>
<clipPath id="clip0_2245_240">
<rect width="155" height="60" fill="white"/>
</clipPath>
</defs>
</svg>
